<?xml version="1.0" encoding="utf-8"?>
<?xml-stylesheet type="text/xsl" href="rss1.xsl"?>
<rss version="2.0" xmlns:atom="http://www.w3.org/2005/Atom" xmlns:content="http://purl.org/rss/1.0/modules/content/" xmlns:dc="http://purl.org/dc/elements/1.1/" xmlns:media="http://search.yahoo.com/mrss/">
<channel>
 <title>Getty</title>
 <link>http://www.gettyimg.com/</link>
 <atom:link href="http://www.gettyimg.com/" rel="self" type="application/rss+xml" />

 
                <item>
                <title><![CDATA[【Cinema Center】SERIES - Abby Hatcher (Season 1) (1080p PMTP WEB-DL DDP5.1 H.264)]]></title>
                <link><![CDATA[https://sharemania.us/threads/abby-hatcher-season-1-1080p-pmtp-web-dl-ddp5-1-h-264.233457/]]></link>
                <description><![CDATA[<article>
<blockquote class="messageText SelectQuoteContainer ugc baseHtml">
<b>Download</b><br>
<ul>
<li><b><a href="https://gofile.io/d/bfwUdg" target="_blank" class="externalLink" rel="nofollow">https://gofile.io/d/bfwUdg</a></b></li>
</ul>
<div class="messageTextEndMarker">&nbsp;</div>
</blockquote>
</article>]]></description>
                <author><![CDATA[Austin Zimmermann]]></author>
                </item>

                
                <item>
                <title><![CDATA[【Cinema Center】SERIES - Star Wars: Clone Wars - Volume One (2003-2004) (DVD9 NTSC R1)]]></title>
                <link><![CDATA[https://sharemania.us/threads/star-wars-clone-wars-volume-one-2003-2004-dvd9-ntsc-r1.233458/]]></link>
                <description><![CDATA[<article>
<blockquote class="messageText SelectQuoteContainer ugc baseHtml">
<img src="https://images.45worlds.com/f/dv/star-wars-clone-wars-volume-one-dv.jpg" class="bbCodeImage LbImage" alt="[​IMG]" data-url="https://images.45worlds.com/f/dv/star-wars-clone-wars-volume-one-dv.jpg" style=""> <br>
<img src="https://images.45worlds.com/f/dv/star-wars-clone-wars-volume-one-20th-century-fox-dv.jpg" class="bbCodeImage LbImage" alt="[​IMG]" data-url="https://images.45worlds.com/f/dv/star-wars-clone-wars-volume-one-20th-century-fox-dv.jpg" style=""> <br>
<br>
<div class="bbCodeBlock bbCodeCode">
<div class="type">Code:</div>
<pre>General
Complete name                            : /Users/austinzimmermann/Downloads/CLONE_WARS.iso
Format                                   : ISO 9660 / DVD Video
Format profile                           : Program
File size                                : 4.87 GiB
Duration                                 : 1 h 9 min
Overall bit rate mode                    : Variable
Overall bit rate                         : 10.0 Mb/s
Frame rate                               : 29.970 FPS
Movie name                               : CLONE_WARS
Encoded date                             : 2005-01-04 20:55:11.00+56:00

Video
ID                                       : 224 (0xE0)
Format                                   : MPEG Video
Format version                           : Version 2
Format profile                           : Main@Main
Format settings                          : CustomMatrix / BVOP
Format settings, BVOP                    : Yes
Format settings, Matrix                  : Custom
Format settings, GOP                     : Variable
Duration                                 : 1 h 9 min
Bit rate mode                            : Variable
Bit rate                                 : 8 645 kb/s
Maximum bit rate                         : 9 800 kb/s
Width                                    : 720 pixels
Height                                   : 480 pixels
Display aspect ratio                     : 16:9
Frame rate                               : 29.970 (29970/1000) FPS
Original frame rate                      : 23.976 (24000/1001) FPS
Standard                                 : NTSC
Color space                              : YUV
Chroma subsampling                       : 4:2:0
Bit depth                                : 8 bits
Scan type                                : Progressive
Scan order                               : 2:3 Pulldown
Compression mode                         : Lossy
Bits/(Pixel*Frame)                       : 0.835
Time code of first frame                 : 00:59:58;00
Time code source                         : Group of pictures header
Stream size                              : 4.20 GiB (86%)
Source                                   : VIDEO_TS/VTS_01_0.IFO

Audio #1
ID                                       : 189 (0xBD)-128 (0x80)
Format                                   : AC-3
Format/Info                              : Audio Coding 3
Commercial name                          : Dolby Digital
Format settings                          : Dolby Surround
Muxing mode                              : DVD-Video
Duration                                 : 1 h 9 min
Bit rate mode                            : Constant
Bit rate                                 : 192 kb/s
Channel(s)                               : 2 channels
Channel layout                           : L R
Sampling rate                            : 48.0 kHz
Frame rate                               : 31.250 FPS (1536 SPF)
Compression mode                         : Lossy
Stream size                              : 95.5 MiB (2%)
Language                                 : English
Service kind                             : Complete Main
Source                                   : VIDEO_TS/VTS_01_0.IFO

Audio #2
ID                                       : 189 (0xBD)-129 (0x81)
Format                                   : AC-3
Format/Info                              : Audio Coding 3
Commercial name                          : Dolby Digital
Format settings                          : Dolby Surround
Muxing mode                              : DVD-Video
Duration                                 : 1 h 9 min
Bit rate mode                            : Constant
Bit rate                                 : 192 kb/s
Channel(s)                               : 2 channels
Channel layout                           : L R
Sampling rate                            : 48.0 kHz
Frame rate                               : 31.250 FPS (1536 SPF)
Compression mode                         : Lossy
Stream size                              : 95.5 MiB (2%)
Language                                 : Spanish
Service kind                             : Complete Main
Source                                   : VIDEO_TS/VTS_01_0.IFO

Audio #3
ID                                       : 189 (0xBD)-130 (0x82)
Format                                   : AC-3
Format/Info                              : Audio Coding 3
Commercial name                          : Dolby Digital
Format settings                          : Dolby Surround
Muxing mode                              : DVD-Video
Duration                                 : 1 h 9 min
Bit rate mode                            : Constant
Bit rate                                 : 192 kb/s
Channel(s)                               : 2 channels
Channel layout                           : L R
Sampling rate                            : 48.0 kHz
Frame rate                               : 31.250 FPS (1536 SPF)
Compression mode                         : Lossy
Stream size                              : 95.5 MiB (2%)
Language                                 : French
Service kind                             : Complete Main
Source                                   : VIDEO_TS/VTS_01_0.IFO

Audio #4
ID                                       : 189 (0xBD)-131 (0x83)
Format                                   : AC-3
Format/Info                              : Audio Coding 3
Commercial name                          : Dolby Digital
Format settings                          : Dolby Surround
Muxing mode                              : DVD-Video
Duration                                 : 1 h 9 min
Bit rate mode                            : Constant
Bit rate                                 : 192 kb/s
Channel(s)                               : 2 channels
Channel layout                           : L R
Sampling rate                            : 48.0 kHz
Frame rate                               : 31.250 FPS (1536 SPF)
Compression mode                         : Lossy
Stream size                              : 95.5 MiB (2%)
Language                                 : English
Language, more info                      : Director's comments
Service kind                             : Complete Main
Source                                   : VIDEO_TS/VTS_01_0.IFO

Audio #5
ID                                       : 189 (0xBD)-132 (0x84)
Format                                   : AC-3
Format/Info                              : Audio Coding 3
Commercial name                          : Dolby Digital
Format settings                          : Dolby Surround
Muxing mode                              : DVD-Video
Duration                                 : 1 h 9 min
Bit rate mode                            : Constant
Bit rate                                 : 192 kb/s
Channel(s)                               : 2 channels
Channel layout                           : L R
Sampling rate                            : 48.0 kHz
Frame rate                               : 31.250 FPS (1536 SPF)
Compression mode                         : Lossy
Stream size                              : 95.5 MiB (2%)
Language                                 : English
Language, more info                      : Director's comments
Service kind                             : Complete Main
Source                                   : VIDEO_TS/VTS_01_0.IFO

Text #1
ID                                       : 189 (0xBD)-32 (0x20)
Format                                   : RLE
Format/Info                              : Run-length encoding
Muxing mode                              : DVD-Video
Duration                                 : 1 h 9 min
Bit depth                                : 2 bits
Delay relative to video                  : 3 s 637 ms
Language                                 : English
Source                                   : VIDEO_TS/VTS_01_0.IFO

Text #2
ID                                       : 189 (0xBD)-33 (0x21)
Format                                   : RLE
Format/Info                              : Run-length encoding
Muxing mode                              : DVD-Video
Duration                                 : 1 h 9 min
Bit depth                                : 2 bits
Delay relative to video                  : 3 s 637 ms
Language                                 : English
Source                                   : VIDEO_TS/VTS_01_0.IFO

Text #3
ID                                       : 224 (0xE0)-CC3
Format                                   : EIA-608
Format/Info                              : Run-length encoding
Muxing mode, more info                   : Muxed in Video #1
Duration                                 : 1 h 9 min
Start time (commands)                    : 2 s 233 ms
Start time                               : 3 s 734 ms
Bit rate mode                            : Constant
Bit depth                                : 2 bits
Stream size                              : 0.00 Byte (0%)
Language                                 : Spanish
Count of frames before first event       : 84
Type of the first event                  : PopOn
Source                                   : VIDEO_TS/VTS_01_0.IFO

Text #4
ID                                       : 189 (0xBD)-38 (0x26)
Format                                   : RLE
Format/Info                              : Run-length encoding
Duration                                 : 1 h 9 min
Bit depth                                : 2 bits
Language                                 : French
Source                                   : VIDEO_TS/VTS_01_0.IFO

Menu
Duration                                 : 1 h 9 min
00:00:00.000                             : Chapter 1
00:03:34.500                             : Chapter 2
00:06:55.500                             : Chapter 3
00:09:59.700                             : Chapter 4
00:13:07.333                             : Chapter 5
00:16:21.000                             : Chapter 6
00:19:27.200                             : Chapter 7
00:22:53.667                             : Chapter 8
00:25:56.000                             : Chapter 9
00:29:02.867                             : Chapter 10
00:32:18.867                             : Chapter 11
00:35:37.867                             : Chapter 12
00:38:51.167                             : Chapter 13
00:42:00.000                             : Chapter 14
00:45:04.500                             : Chapter 15
00:48:40.400                             : Chapter 16
00:51:52.500                             : Chapter 17
00:55:12.200                             : Chapter 18
00:58:16.167                             : Chapter 19
01:01:12.667                             : Chapter 20
01:08:47.700                             : Chapter 21
01:09:29.833                             : Chapter 22
List (Audio)                             : 0 / 1 / 2 / 3 / 4
List (Subtitles 4/3)                     : 0 / 0 / 0 / 0
List (Subtitles Wide)                    : 0 / 2 /  / 
List (Subtitles Letterbox)               : 1 / 3 /  / 
List (Subtitles Pan&amp;Scan)                : 0 / 0 / 0 / 0
Source                                   : VIDEO_TS/VTS_01_0.IFO
</pre>
</div><b>Download</b><br>
<ul>
<li><b><a href="https://gofile.io/d/oG08tf" target="_blank" class="externalLink" rel="nofollow">https://gofile.io/d/oG08tf</a></b></li>
</ul>
<div class="messageTextEndMarker">&nbsp;</div>
</blockquote>
</article>]]></description>
                <author><![CDATA[Austin Zimmermann]]></author>
                </item>

                
                <item>
                <title><![CDATA[【Cinema Center】MOVIE - 스타워즈 에피소드 2: 클론의 습격 (2002) (KOR-ENG) (1080p DSNP WEB-DL DDP5.1 H.264)]]></title>
                <link><![CDATA[https://sharemania.us/threads/%EC%8A%A4%ED%83%80%EC%9B%8C%EC%A6%88-%EC%97%90%ED%94%BC%EC%86%8C%EB%93%9C-2-%ED%81%B4%EB%A1%A0%EC%9D%98-%EC%8A%B5%EA%B2%A9-2002-kor-eng-1080p-dsnp-web-dl-ddp5-1-h-264.233460/]]></link>
                <description><![CDATA[<article>
<blockquote class="messageText SelectQuoteContainer ugc baseHtml">
<b>Release Name</b><br>
Star.Wars.Episode.II.Attack.of.the.Clones.2002.KOR-ENG.1080p.DSNP.WEB-DL.DDP5.1.H.264<br>
<br>
<div class="bbCodeBlock bbCodeCode">
<div class="type">Code:</div>
<pre>General
Unique ID                                : 85202681839059790235586444633170819107 (0x4019708B90AA342DAC817C89C620B823)
Complete name                            : C:\Users\austi\Documents\StreamFab\StreamFab\Output\Disney+\Star.Wars.Episode.II.Attack.of.the.Clones.2002.KOR-ENG.1080p.DSNP.WEB-DL.DDP5.1.H.264.mkv
Format                                   : Matroska
Format version                           : Version 4
File size                                : 4.57 GiB
Duration                                 : 2 h 22 min
Overall bit rate mode                    : Variable
Overall bit rate                         : 4 586 kb/s
Frame rate                               : 23.976 FPS
Movie name                               : 스타워즈: 클론의 습격 (에피소드 2)
Encoded date                             : 2023-12-02 16:14:51 UTC
Writing application                      : mkvmerge v68.0.0 ('The Curtain') 64-bit
Writing library                          : libebml v1.4.2 + libmatroska v1.6.4
Video
ID                                       : 1
Format                                   : AVC
Format/Info                              : Advanced Video Codec
Format profile                           : High@L4
Format settings                          : CABAC / 4 Ref Frames
Format settings, CABAC                   : Yes
Format settings, Reference frames        : 4 frames
Codec ID                                 : V_MPEG4/ISO/AVC
Duration                                 : 2 h 22 min
Bit rate mode                            : Variable
Bit rate                                 : 4 332 kb/s
Maximum bit rate                         : 12.7 Mb/s
Width                                    : 1 920 pixels
Height                                   : 1 080 pixels
Display aspect ratio                     : 16:9
Frame rate mode                          : Constant
Frame rate                               : 23.976 (24000/1001) FPS
Color space                              : YUV
Chroma subsampling                       : 4:2:0
Bit depth                                : 8 bits
Scan type                                : Progressive
Bits/(Pixel*Frame)                       : 0.087
Time code of first frame                 : 00:00:00;00
Stream size                              : 4.31 GiB (94%)
Default                                  : Yes
Forced                                   : No
Color range                              : Limited
Color primaries                          : BT.709
Transfer characteristics                 : BT.709
Matrix coefficients                      : BT.709
Audio #1
ID                                       : 2
Format                                   : AAC LC
Format/Info                              : Advanced Audio Codec Low Complexity
Codec ID                                 : A_AAC-2
Duration                                 : 2 h 22 min
Bit rate                                 : 125 kb/s
Channel(s)                               : 2 channels
Channel layout                           : L R
Sampling rate                            : 48.0 kHz
Frame rate                               : 46.875 FPS (1024 SPF)
Compression mode                         : Lossy
Stream size                              : 128 MiB (3%)
Title                                    : Korean (South Korea)
Language                                 : Korean
Default                                  : Yes
Forced                                   : No
Audio #2
ID                                       : 3
Format                                   : AAC LC
Format/Info                              : Advanced Audio Codec Low Complexity
Codec ID                                 : A_AAC-2
Duration                                 : 2 h 22 min
Bit rate                                 : 125 kb/s
Channel(s)                               : 2 channels
Channel layout                           : L R
Sampling rate                            : 48.0 kHz
Frame rate                               : 46.875 FPS (1024 SPF)
Compression mode                         : Lossy
Stream size                              : 128 MiB (3%)
Title                                    : English (United States)
Language                                 : English
Default                                  : No
Forced                                   : No
Text #1
ID                                       : 4
Format                                   : UTF-8
Codec ID                                 : S_TEXT/UTF8
Codec ID/Info                            : UTF-8 Plain Text
Duration                                 : 1 h 55 min
Bit rate                                 : 0 b/s
Frame rate                               : 0.002 FPS
Count of elements                        : 16
Stream size                              : 572 Bytes (0%)
Title                                    : en--forced--
Language                                 : English
Default                                  : No
Forced                                   : No
Text #2
ID                                       : 5
Format                                   : UTF-8
Codec ID                                 : S_TEXT/UTF8
Codec ID/Info                            : UTF-8 Plain Text
Duration                                 : 2 h 11 min
Bit rate                                 : 50 b/s
Frame rate                               : 0.172 FPS
Count of elements                        : 1361
Stream size                              : 48.3 KiB (0%)
Title                                    : English [CC]
Language                                 : English
Default                                  : No
Forced                                   : No
Text #3
ID                                       : 6
Format                                   : UTF-8
Codec ID                                 : S_TEXT/UTF8
Codec ID/Info                            : UTF-8 Plain Text
Duration                                 : 2 h 16 min
Bit rate                                 : 41 b/s
Frame rate                               : 0.132 FPS
Count of elements                        : 1084
Stream size                              : 41.1 KiB (0%)
Title                                    : Korean
Language                                 : Korean
Default                                  : No
Forced                                   : No
</pre>
</div><b>Download</b><br>
<ul>
<li><a href="https://gofile.io/d/k87IBn" target="_blank" class="externalLink" rel="nofollow">https://gofile.io/d/k87IBn</a></li>
</ul>
<div class="messageTextEndMarker">&nbsp;</div>
</blockquote>
</article>]]></description>
                <author><![CDATA[Austin Zimmermann]]></author>
                </item>

                
                <item>
                <title><![CDATA[【Cinema Center】MOVIE - 스타워즈 에피소드 1: 보이지 않는 위험 (1999) (KOR-ENG) (1080p DSNP WEB-DL DDP5.1 H.264)]]></title>
                <link><![CDATA[https://sharemania.us/threads/%EC%8A%A4%ED%83%80%EC%9B%8C%EC%A6%88-%EC%97%90%ED%94%BC%EC%86%8C%EB%93%9C-1-%EB%B3%B4%EC%9D%B4%EC%A7%80-%EC%95%8A%EB%8A%94-%EC%9C%84%ED%97%98-1999-kor-eng-1080p-dsnp-web-dl-ddp5-1-h-264.233459/]]></link>
                <description><![CDATA[<article>
<blockquote class="messageText SelectQuoteContainer ugc baseHtml">
<b>Release Name</b><br>
Star.Wars.Episode.I.The.Phantom.Menace.1999.KOR-ENG.1080p.DSNP.WEB-DL.DDP5.1.H.264<br>
<br>
<div class="bbCodeBlock bbCodeCode">
<div class="type">Code:</div>
<pre>General
Unique ID                                : 2457636404838606289238525027661035316 (0x1D952D476E304E0FFA60B60D46AB734)
Complete name                            : C:\Users\austi\Documents\StreamFab\StreamFab\Output\Disney+\Star.Wars.Episode.I.The.Phantom.Menace.1999.KOR-ENG.1080p.DSNP.WEB-DL.DDP5.1.H.264.mkv
Format                                   : Matroska
Format version                           : Version 4
File size                                : 4.59 GiB
Duration                                 : 2 h 16 min
Overall bit rate mode                    : Variable
Overall bit rate                         : 4 825 kb/s
Frame rate                               : 23.976 FPS
Movie name                               : 스타워즈: 보이지 않는 위험 (에피소드 1)
Encoded date                             : 2023-12-02 15:06:01 UTC
Writing application                      : mkvmerge v68.0.0 ('The Curtain') 64-bit
Writing library                          : libebml v1.4.2 + libmatroska v1.6.4
Video
ID                                       : 1
Format                                   : AVC
Format/Info                              : Advanced Video Codec
Format profile                           : High@L4
Format settings                          : CABAC / 4 Ref Frames
Format settings, CABAC                   : Yes
Format settings, Reference frames        : 4 frames
Codec ID                                 : V_MPEG4/ISO/AVC
Duration                                 : 2 h 16 min
Bit rate mode                            : Variable
Bit rate                                 : 4 571 kb/s
Maximum bit rate                         : 8 250 kb/s
Width                                    : 1 920 pixels
Height                                   : 1 080 pixels
Display aspect ratio                     : 16:9
Frame rate mode                          : Constant
Frame rate                               : 23.976 (24000/1001) FPS
Color space                              : YUV
Chroma subsampling                       : 4:2:0
Bit depth                                : 8 bits
Scan type                                : Progressive
Bits/(Pixel*Frame)                       : 0.092
Time code of first frame                 : 00:00:00;00
Stream size                              : 4.35 GiB (95%)
Default                                  : Yes
Forced                                   : No
Color range                              : Limited
Color primaries                          : BT.709
Transfer characteristics                 : BT.709
Matrix coefficients                      : BT.709
Audio #1
ID                                       : 2
Format                                   : AAC LC
Format/Info                              : Advanced Audio Codec Low Complexity
Codec ID                                 : A_AAC-2
Duration                                 : 2 h 16 min
Bit rate                                 : 125 kb/s
Channel(s)                               : 2 channels
Channel layout                           : L R
Sampling rate                            : 48.0 kHz
Frame rate                               : 46.875 FPS (1024 SPF)
Compression mode                         : Lossy
Stream size                              : 122 MiB (3%)
Title                                    : Korean (South Korea)
Language                                 : Korean (KR)
Default                                  : Yes
Forced                                   : No
Audio #2
ID                                       : 3
Format                                   : AAC LC
Format/Info                              : Advanced Audio Codec Low Complexity
Codec ID                                 : A_AAC-2
Duration                                 : 2 h 16 min
Bit rate                                 : 125 kb/s
Channel(s)                               : 2 channels
Channel layout                           : L R
Sampling rate                            : 48.0 kHz
Frame rate                               : 46.875 FPS (1024 SPF)
Compression mode                         : Lossy
Stream size                              : 122 MiB (3%)
Title                                    : English (United States)
Language                                 : English (US)
Default                                  : No
Forced                                   : No
Text #1
ID                                       : 4
Format                                   : UTF-8
Codec ID                                 : S_TEXT/UTF8
Codec ID/Info                            : UTF-8 Plain Text
Duration                                 : 26 min 43 s
Bit rate                                 : 4 b/s
Frame rate                               : 0.017 FPS
Count of elements                        : 28
Stream size                              : 815 Bytes (0%)
Title                                    : en--forced--
Language                                 : English
Default                                  : No
Forced                                   : No
Text #2
ID                                       : 5
Format                                   : UTF-8
Codec ID                                 : S_TEXT/UTF8
Codec ID/Info                            : UTF-8 Plain Text
Duration                                 : 2 h 14 min
Bit rate                                 : 57 b/s
Frame rate                               : 0.206 FPS
Count of elements                        : 1657
Stream size                              : 56.2 KiB (0%)
Title                                    : English [CC]
Language                                 : English
Default                                  : No
Forced                                   : No
Text #3
ID                                       : 6
Format                                   : UTF-8
Codec ID                                 : S_TEXT/UTF8
Codec ID/Info                            : UTF-8 Plain Text
Duration                                 : 2 h 10 min
Bit rate                                 : 50 b/s
Frame rate                               : 0.174 FPS
Count of elements                        : 1361
Stream size                              : 48.0 KiB (0%)
Title                                    : Korean
Language                                 : Korean
Default                                  : No
Forced                                   : No
</pre>
</div><b>Download</b><br>
<ul>
<li><a href="https://gofile.io/d/mYDU7e" target="_blank" class="externalLink" rel="nofollow">https://gofile.io/d/mYDU7e</a></li>
</ul>
<div class="messageTextEndMarker">&nbsp;</div>
</blockquote>
</article>]]></description>
                <author><![CDATA[Austin Zimmermann]]></author>
                </item>

                </channel></rss>